# xmcd CD database file
#
# Track frame offsets:
#	150
#	10936
#	21633
#	34225
#	45588
#	57390
#	68593
#	78913
#	89854
#	101599
#	112014
#	123376
#	135082
#	144308
#	157019
#	166718
#	175827
#	185570
#	195465
#	206029
#	215736
#	226334
#	238051
#	247616
#	258072
#	269687
#	281332
#	292972
#	303515
#
# Disc length: 4202 seconds
#
# Revision: 0
# Processed by: cddbd v1.5PL3 Copyright (c) Steve Scherf et al.
# Submitted via: CDex 1.51
#
DISCID=9d10681d
DTITLE=Lattie Moore - I'm Not Broke But I'm Badly Bent: The Best of the King-Starday Recordings 1953-63
DYEAR=2000
DGENRE=Country
TTITLE0=Under a Mexico Moon
TTITLE1=I'm Not Broke But I'm Badly Bent
TTITLE2=Foolish Castles
TTITLE3=I'm Gonna Tell You Something
TTITLE4=Don't Trade the Old for a New
TTITLE5=A Brand New Case of Love
TTITLE6=I Gotta Go Home (And Catch up on My Sleep)
TTITLE7=They're Not Worth the Paper They're Written On
TTITLE8=What Am I Supposed to Do
TTITLE9=Pull Down the Blinds
TTITLE10=100, 000 Women Can't Be Wrong
TTITLE11=Lonesome Man Blues
TTITLE12=Why Did You Lie to Me
TTITLE13=You Never Looked Sweeter
TTITLE14=Too Hot to Handle
TTITLE15=Just A-Waitin'
TTITLE16=The Jukebox and the Phone
TTITLE17=Rockabilly Joe's
TTITLE18=No Money in This Deal
TTITLE19=If the Good Lord's Willing [1959 Version]
TTITLE20=Cajun Doll
TTITLE21=Driving Nails (In My Coffin)
TTITLE22=Drunk Again
TTITLE23=If the Good Lord's Willing [1961 Version]
TTITLE24=Sundown and Sorrow
TTITLE25=I Told You So
TTITLE26=Out of Control
TTITLE27=Just About Then
TTITLE28=Honky Tonk Heaven
EXTD=YEAR: 2000
EXTT0=
EXTT1=
EXTT2=
EXTT3=
EXTT4=
EXTT5=
EXTT6=
EXTT7=
EXTT8=
EXTT9=
EXTT10=
EXTT11=
EXTT12=
EXTT13=
EXTT14=
EXTT15=
EXTT16=
EXTT17=
EXTT18=
EXTT19=
EXTT20=
EXTT21=
EXTT22=
EXTT23=
EXTT24=
EXTT25=
EXTT26=
EXTT27=
EXTT28=
PLAYORDER=
